<mxfile host="app.diagrams.net" agent="Mozilla/5.0 (Macintosh; Intel Mac OS X 10_15_7) AppleWebKit/537.36 (KHTML, like Gecko) Chrome/133.0.0.0 Safari/537.36" version="26.0.15">
  <diagram name="Page-1" id="xxyBkbVe0pJRAsgol_uY">
    <mxGraphModel dx="776" dy="491" grid="1" gridSize="10" guides="1" tooltips="1" connect="1" arrows="1" fold="1" page="1" pageScale="1" pageWidth="850" pageHeight="1100" math="0" shadow="0">
      <root>
        <mxCell id="0" />
        <mxCell id="1" parent="0" />
        <mxCell id="JidemQDoPhzi0IYGn3nQ-2" value="CIT&#xa;" style="swimlane;startSize=0;" vertex="1" parent="1">
          <mxGeometry x="310" y="160" width="250" height="530" as="geometry" />
        </mxCell>
        <mxCell id="JidemQDoPhzi0IYGn3nQ-8" value="register" style="ellipse;whiteSpace=wrap;html=1;" vertex="1" parent="JidemQDoPhzi0IYGn3nQ-2">
          <mxGeometry x="93" y="15" width="65" height="40" as="geometry" />
        </mxCell>
        <mxCell id="JidemQDoPhzi0IYGn3nQ-26" value="Insurance contracts" style="swimlane;whiteSpace=wrap;html=1;" vertex="1" parent="JidemQDoPhzi0IYGn3nQ-2">
          <mxGeometry x="87.5" y="147" width="90" height="120" as="geometry" />
        </mxCell>
        <mxCell id="JidemQDoPhzi0IYGn3nQ-27" value="&lt;font style=&quot;line-height: 90%; font-size: 8px;&quot;&gt;Company1 contracts&lt;/font&gt;" style="swimlane;whiteSpace=wrap;html=1;startSize=30;" vertex="1" parent="JidemQDoPhzi0IYGn3nQ-26">
          <mxGeometry y="24" width="50" height="90" as="geometry" />
        </mxCell>
        <mxCell id="JidemQDoPhzi0IYGn3nQ-29" value="&lt;font style=&quot;font-size: 6px;&quot;&gt;Individual contracts&lt;/font&gt;" style="swimlane;whiteSpace=wrap;html=1;startSize=30;" vertex="1" parent="JidemQDoPhzi0IYGn3nQ-27">
          <mxGeometry x="10" y="40" width="30" height="50" as="geometry" />
        </mxCell>
        <mxCell id="JidemQDoPhzi0IYGn3nQ-28" value="&lt;font style=&quot;line-height: 90%; font-size: 8px;&quot;&gt;Company2 contracts&lt;/font&gt;" style="swimlane;whiteSpace=wrap;html=1;startSize=30;" vertex="1" parent="JidemQDoPhzi0IYGn3nQ-26">
          <mxGeometry x="50" y="24" width="40" height="90" as="geometry" />
        </mxCell>
        <mxCell id="JidemQDoPhzi0IYGn3nQ-30" value="&lt;font style=&quot;font-size: 6px;&quot;&gt;Individual contracts&lt;/font&gt;" style="swimlane;whiteSpace=wrap;html=1;startSize=30;" vertex="1" parent="JidemQDoPhzi0IYGn3nQ-28">
          <mxGeometry x="10" y="40" width="30" height="50" as="geometry" />
        </mxCell>
        <mxCell id="JidemQDoPhzi0IYGn3nQ-31" value="view contracts" style="ellipse;whiteSpace=wrap;html=1;" vertex="1" parent="JidemQDoPhzi0IYGn3nQ-2">
          <mxGeometry x="98" y="60" width="60" height="30" as="geometry" />
        </mxCell>
        <mxCell id="JidemQDoPhzi0IYGn3nQ-38" value="all&lt;span style=&quot;color: rgba(0, 0, 0, 0); font-family: monospace; font-size: 0px; text-align: start; text-wrap-mode: nowrap;&quot;&gt;%3CmxGraphModel%3E%3Croot%3E%3CmxCell%20id%3D%220%22%2F%3E%3CmxCell%20id%3D%221%22%20parent%3D%220%22%2F%3E%3CmxCell%20id%3D%222%22%20value%3D%22%26lt%3Bfont%20style%3D%26quot%3Bfont-size%3A%206px%3B%26quot%3B%26gt%3BIndividual%20contracts%26lt%3B%2Ffont%26gt%3B%22%20style%3D%22swimlane%3BwhiteSpace%3Dwrap%3Bhtml%3D1%3BstartSize%3D30%3B%22%20vertex%3D%221%22%20parent%3D%221%22%3E%3CmxGeometry%20x%3D%22370%22%20y%3D%22310%22%20width%3D%2240%22%20height%3D%2250%22%20as%3D%22geometry%22%2F%3E%3C%2FmxCell%3E%3C%2Froot%3E%3C%2FmxGraphModel%3E&lt;/span&gt;" style="ellipse;whiteSpace=wrap;html=1;" vertex="1" parent="JidemQDoPhzi0IYGn3nQ-2">
          <mxGeometry x="99" y="100" width="32" height="20" as="geometry" />
        </mxCell>
        <mxCell id="JidemQDoPhzi0IYGn3nQ-39" value="own" style="ellipse;whiteSpace=wrap;html=1;" vertex="1" parent="JidemQDoPhzi0IYGn3nQ-2">
          <mxGeometry x="136" y="99" width="32" height="20" as="geometry" />
        </mxCell>
        <mxCell id="JidemQDoPhzi0IYGn3nQ-40" value="" style="endArrow=classic;html=1;rounded=0;exitX=0.5;exitY=1;exitDx=0;exitDy=0;entryX=0.5;entryY=0;entryDx=0;entryDy=0;" edge="1" parent="JidemQDoPhzi0IYGn3nQ-2" source="JidemQDoPhzi0IYGn3nQ-31" target="JidemQDoPhzi0IYGn3nQ-38">
          <mxGeometry width="50" height="50" relative="1" as="geometry">
            <mxPoint x="40" y="210" as="sourcePoint" />
            <mxPoint x="90" y="160" as="targetPoint" />
          </mxGeometry>
        </mxCell>
        <mxCell id="JidemQDoPhzi0IYGn3nQ-41" value="" style="endArrow=classic;html=1;rounded=0;exitX=0.5;exitY=1;exitDx=0;exitDy=0;entryX=0.5;entryY=0;entryDx=0;entryDy=0;" edge="1" parent="JidemQDoPhzi0IYGn3nQ-2" source="JidemQDoPhzi0IYGn3nQ-31" target="JidemQDoPhzi0IYGn3nQ-39">
          <mxGeometry width="50" height="50" relative="1" as="geometry">
            <mxPoint x="138" y="100" as="sourcePoint" />
            <mxPoint x="125" y="110" as="targetPoint" />
          </mxGeometry>
        </mxCell>
        <mxCell id="JidemQDoPhzi0IYGn3nQ-43" value="" style="endArrow=classic;html=1;rounded=0;exitX=0.5;exitY=1;exitDx=0;exitDy=0;entryX=0.351;entryY=-0.002;entryDx=0;entryDy=0;entryPerimeter=0;" edge="1" parent="JidemQDoPhzi0IYGn3nQ-2" source="JidemQDoPhzi0IYGn3nQ-38" target="JidemQDoPhzi0IYGn3nQ-28">
          <mxGeometry width="50" height="50" relative="1" as="geometry">
            <mxPoint x="40" y="210" as="sourcePoint" />
            <mxPoint x="90" y="160" as="targetPoint" />
          </mxGeometry>
        </mxCell>
        <mxCell id="JidemQDoPhzi0IYGn3nQ-44" value="" style="endArrow=classic;html=1;rounded=0;exitX=0.5;exitY=1;exitDx=0;exitDy=0;entryX=0.5;entryY=0;entryDx=0;entryDy=0;" edge="1" parent="JidemQDoPhzi0IYGn3nQ-2" source="JidemQDoPhzi0IYGn3nQ-39" target="JidemQDoPhzi0IYGn3nQ-28">
          <mxGeometry width="50" height="50" relative="1" as="geometry">
            <mxPoint x="155.5" y="119" as="sourcePoint" />
            <mxPoint x="148.5" y="168" as="targetPoint" />
          </mxGeometry>
        </mxCell>
        <mxCell id="JidemQDoPhzi0IYGn3nQ-46" value="Provide TPIN" style="ellipse;whiteSpace=wrap;html=1;" vertex="1" parent="JidemQDoPhzi0IYGn3nQ-2">
          <mxGeometry x="100.5" y="270" width="50" height="40" as="geometry" />
        </mxCell>
        <mxCell id="JidemQDoPhzi0IYGn3nQ-51" value="Get BM" style="ellipse;whiteSpace=wrap;html=1;" vertex="1" parent="JidemQDoPhzi0IYGn3nQ-2">
          <mxGeometry x="99.5" y="320" width="57" height="40" as="geometry" />
        </mxCell>
        <mxCell id="JidemQDoPhzi0IYGn3nQ-57" value="" style="endArrow=classic;startArrow=classic;html=1;rounded=0;" edge="1" parent="JidemQDoPhzi0IYGn3nQ-2">
          <mxGeometry width="50" height="50" relative="1" as="geometry">
            <mxPoint x="150.5" y="330" as="sourcePoint" />
            <mxPoint x="180" y="230" as="targetPoint" />
            <Array as="points">
              <mxPoint x="210" y="270" />
            </Array>
          </mxGeometry>
        </mxCell>
        <mxCell id="JidemQDoPhzi0IYGn3nQ-58" value="&lt;font style=&quot;font-size: 7px;&quot;&gt;active contracts,&lt;/font&gt;&lt;div&gt;&lt;font style=&quot;font-size: 7px;&quot;&gt;incidents&lt;/font&gt;&lt;/div&gt;" style="edgeLabel;html=1;align=center;verticalAlign=middle;resizable=0;points=[];" vertex="1" connectable="0" parent="JidemQDoPhzi0IYGn3nQ-57">
          <mxGeometry x="-0.6419" relative="1" as="geometry">
            <mxPoint x="10" y="-13" as="offset" />
          </mxGeometry>
        </mxCell>
        <mxCell id="JidemQDoPhzi0IYGn3nQ-59" value="&lt;font style=&quot;font-size: 8px;&quot;&gt;request&lt;/font&gt;" style="edgeLabel;html=1;align=center;verticalAlign=middle;resizable=0;points=[];" vertex="1" connectable="0" parent="JidemQDoPhzi0IYGn3nQ-57">
          <mxGeometry x="0.766" relative="1" as="geometry">
            <mxPoint x="11" y="7" as="offset" />
          </mxGeometry>
        </mxCell>
        <mxCell id="JidemQDoPhzi0IYGn3nQ-60" value="Contract sign" style="ellipse;whiteSpace=wrap;html=1;" vertex="1" parent="JidemQDoPhzi0IYGn3nQ-2">
          <mxGeometry x="93" y="390" width="70" height="50" as="geometry" />
        </mxCell>
        <mxCell id="JidemQDoPhzi0IYGn3nQ-62" value="" style="endArrow=classic;startArrow=classic;html=1;rounded=0;exitX=0.5;exitY=0;exitDx=0;exitDy=0;" edge="1" parent="JidemQDoPhzi0IYGn3nQ-2" source="JidemQDoPhzi0IYGn3nQ-60" target="JidemQDoPhzi0IYGn3nQ-51">
          <mxGeometry width="50" height="50" relative="1" as="geometry">
            <mxPoint x="37.5" y="400" as="sourcePoint" />
            <mxPoint x="87.5" y="350" as="targetPoint" />
          </mxGeometry>
        </mxCell>
        <mxCell id="JidemQDoPhzi0IYGn3nQ-5" value="User" style="shape=umlActor;verticalLabelPosition=bottom;verticalAlign=top;html=1;outlineConnect=0;" vertex="1" parent="1">
          <mxGeometry x="220" y="170" width="10" height="30" as="geometry" />
        </mxCell>
        <mxCell id="JidemQDoPhzi0IYGn3nQ-6" value="Agent" style="shape=umlActor;verticalLabelPosition=bottom;verticalAlign=top;html=1;outlineConnect=0;" vertex="1" parent="1">
          <mxGeometry x="220" y="400" width="10" height="30" as="geometry" />
        </mxCell>
        <mxCell id="JidemQDoPhzi0IYGn3nQ-7" value="Business user" style="shape=umlActor;verticalLabelPosition=bottom;verticalAlign=top;html=1;outlineConnect=0;" vertex="1" parent="1">
          <mxGeometry x="680" y="280" width="10" height="30" as="geometry" />
        </mxCell>
        <mxCell id="JidemQDoPhzi0IYGn3nQ-16" value="" style="endArrow=classic;startArrow=classic;html=1;rounded=0;entryX=1;entryY=0.5;entryDx=0;entryDy=0;exitX=0.5;exitY=0.5;exitDx=0;exitDy=0;exitPerimeter=0;" edge="1" parent="1" source="JidemQDoPhzi0IYGn3nQ-7" target="JidemQDoPhzi0IYGn3nQ-8">
          <mxGeometry width="50" height="50" relative="1" as="geometry">
            <mxPoint x="230" y="310" as="sourcePoint" />
            <mxPoint x="280" y="260" as="targetPoint" />
          </mxGeometry>
        </mxCell>
        <mxCell id="JidemQDoPhzi0IYGn3nQ-17" value="&lt;font style=&quot;font-size: 8px;&quot;&gt;login and password&lt;/font&gt;" style="edgeLabel;html=1;align=center;verticalAlign=middle;resizable=0;points=[];" vertex="1" connectable="0" parent="JidemQDoPhzi0IYGn3nQ-16">
          <mxGeometry x="0.1579" relative="1" as="geometry">
            <mxPoint x="28" y="-16" as="offset" />
          </mxGeometry>
        </mxCell>
        <mxCell id="JidemQDoPhzi0IYGn3nQ-18" value="&lt;font style=&quot;font-size: 8px;&quot;&gt;name, surname&lt;/font&gt;" style="edgeLabel;html=1;align=center;verticalAlign=middle;resizable=0;points=[];" vertex="1" connectable="0" parent="JidemQDoPhzi0IYGn3nQ-16">
          <mxGeometry x="-0.6118" y="1" relative="1" as="geometry">
            <mxPoint x="13" as="offset" />
          </mxGeometry>
        </mxCell>
        <mxCell id="JidemQDoPhzi0IYGn3nQ-20" value="" style="endArrow=classic;startArrow=classic;html=1;rounded=0;entryX=0;entryY=0.5;entryDx=0;entryDy=0;" edge="1" parent="1" source="JidemQDoPhzi0IYGn3nQ-6" target="JidemQDoPhzi0IYGn3nQ-8">
          <mxGeometry width="50" height="50" relative="1" as="geometry">
            <mxPoint x="250" y="260" as="sourcePoint" />
            <mxPoint x="418" y="140" as="targetPoint" />
          </mxGeometry>
        </mxCell>
        <mxCell id="JidemQDoPhzi0IYGn3nQ-21" value="&lt;font style=&quot;font-size: 8px;&quot;&gt;login and password&lt;/font&gt;" style="edgeLabel;html=1;align=center;verticalAlign=middle;resizable=0;points=[];" vertex="1" connectable="0" parent="JidemQDoPhzi0IYGn3nQ-20">
          <mxGeometry x="0.1579" relative="1" as="geometry">
            <mxPoint x="28" y="-16" as="offset" />
          </mxGeometry>
        </mxCell>
        <mxCell id="JidemQDoPhzi0IYGn3nQ-22" value="&lt;font style=&quot;font-size: 8px;&quot;&gt;name, surname&lt;/font&gt;" style="edgeLabel;html=1;align=center;verticalAlign=middle;resizable=0;points=[];" vertex="1" connectable="0" parent="JidemQDoPhzi0IYGn3nQ-20">
          <mxGeometry x="-0.6118" y="1" relative="1" as="geometry">
            <mxPoint x="13" as="offset" />
          </mxGeometry>
        </mxCell>
        <mxCell id="JidemQDoPhzi0IYGn3nQ-23" value="" style="endArrow=classic;startArrow=classic;html=1;rounded=0;entryX=0;entryY=0.5;entryDx=0;entryDy=0;exitX=0.5;exitY=0.5;exitDx=0;exitDy=0;exitPerimeter=0;" edge="1" parent="1" source="JidemQDoPhzi0IYGn3nQ-5" target="JidemQDoPhzi0IYGn3nQ-8">
          <mxGeometry width="50" height="50" relative="1" as="geometry">
            <mxPoint x="230" y="188" as="sourcePoint" />
            <mxPoint x="393" y="130" as="targetPoint" />
          </mxGeometry>
        </mxCell>
        <mxCell id="JidemQDoPhzi0IYGn3nQ-24" value="&lt;font style=&quot;font-size: 8px;&quot;&gt;login and password&lt;/font&gt;" style="edgeLabel;html=1;align=center;verticalAlign=middle;resizable=0;points=[];" vertex="1" connectable="0" parent="JidemQDoPhzi0IYGn3nQ-23">
          <mxGeometry x="0.1579" relative="1" as="geometry">
            <mxPoint x="28" y="-16" as="offset" />
          </mxGeometry>
        </mxCell>
        <mxCell id="JidemQDoPhzi0IYGn3nQ-25" value="&lt;font style=&quot;font-size: 8px;&quot;&gt;name, surname&lt;/font&gt;" style="edgeLabel;html=1;align=center;verticalAlign=middle;resizable=0;points=[];" vertex="1" connectable="0" parent="JidemQDoPhzi0IYGn3nQ-23">
          <mxGeometry x="-0.6118" y="1" relative="1" as="geometry">
            <mxPoint x="13" as="offset" />
          </mxGeometry>
        </mxCell>
        <mxCell id="JidemQDoPhzi0IYGn3nQ-32" value="" style="endArrow=classic;html=1;rounded=0;" edge="1" parent="1" source="JidemQDoPhzi0IYGn3nQ-5" target="JidemQDoPhzi0IYGn3nQ-29">
          <mxGeometry width="50" height="50" relative="1" as="geometry">
            <mxPoint x="320" y="320" as="sourcePoint" />
            <mxPoint x="370" y="270" as="targetPoint" />
            <Array as="points">
              <mxPoint x="410" y="240" />
            </Array>
          </mxGeometry>
        </mxCell>
        <mxCell id="JidemQDoPhzi0IYGn3nQ-42" value="" style="endArrow=classic;html=1;rounded=0;entryX=0.5;entryY=1;entryDx=0;entryDy=0;exitX=0.5;exitY=0.5;exitDx=0;exitDy=0;exitPerimeter=0;" edge="1" parent="1" source="JidemQDoPhzi0IYGn3nQ-6" target="JidemQDoPhzi0IYGn3nQ-31">
          <mxGeometry width="50" height="50" relative="1" as="geometry">
            <mxPoint x="350" y="370" as="sourcePoint" />
            <mxPoint x="400" y="320" as="targetPoint" />
          </mxGeometry>
        </mxCell>
        <mxCell id="JidemQDoPhzi0IYGn3nQ-45" value="" style="endArrow=classic;html=1;rounded=0;entryX=0.161;entryY=-0.002;entryDx=0;entryDy=0;entryPerimeter=0;" edge="1" parent="1" source="JidemQDoPhzi0IYGn3nQ-7" target="JidemQDoPhzi0IYGn3nQ-27">
          <mxGeometry width="50" height="50" relative="1" as="geometry">
            <mxPoint x="350" y="290" as="sourcePoint" />
            <mxPoint x="400" y="240" as="targetPoint" />
            <Array as="points">
              <mxPoint x="470" y="240" />
            </Array>
          </mxGeometry>
        </mxCell>
        <mxCell id="JidemQDoPhzi0IYGn3nQ-49" value="" style="endArrow=classic;html=1;rounded=0;entryX=1;entryY=0;entryDx=0;entryDy=0;" edge="1" parent="1" source="JidemQDoPhzi0IYGn3nQ-7" target="JidemQDoPhzi0IYGn3nQ-46">
          <mxGeometry width="50" height="50" relative="1" as="geometry">
            <mxPoint x="350" y="490" as="sourcePoint" />
            <mxPoint x="400" y="440" as="targetPoint" />
          </mxGeometry>
        </mxCell>
        <mxCell id="JidemQDoPhzi0IYGn3nQ-50" value="TPIN" style="edgeLabel;html=1;align=center;verticalAlign=middle;resizable=0;points=[];" vertex="1" connectable="0" parent="JidemQDoPhzi0IYGn3nQ-49">
          <mxGeometry x="-0.0275" relative="1" as="geometry">
            <mxPoint as="offset" />
          </mxGeometry>
        </mxCell>
        <mxCell id="JidemQDoPhzi0IYGn3nQ-53" value="" style="endArrow=classic;startArrow=classic;html=1;rounded=0;entryX=0.009;entryY=0.25;entryDx=0;entryDy=0;entryPerimeter=0;" edge="1" parent="1" source="JidemQDoPhzi0IYGn3nQ-5" target="JidemQDoPhzi0IYGn3nQ-51">
          <mxGeometry width="50" height="50" relative="1" as="geometry">
            <mxPoint x="330" y="480" as="sourcePoint" />
            <mxPoint x="380" y="430" as="targetPoint" />
          </mxGeometry>
        </mxCell>
        <mxCell id="JidemQDoPhzi0IYGn3nQ-54" value="Request" style="edgeLabel;html=1;align=center;verticalAlign=middle;resizable=0;points=[];" vertex="1" connectable="0" parent="JidemQDoPhzi0IYGn3nQ-53">
          <mxGeometry x="0.6783" y="-1" relative="1" as="geometry">
            <mxPoint as="offset" />
          </mxGeometry>
        </mxCell>
        <mxCell id="JidemQDoPhzi0IYGn3nQ-55" value="&lt;font style=&quot;font-size: 5px;&quot;&gt;BM class 1 to 22&lt;/font&gt;" style="edgeLabel;html=1;align=center;verticalAlign=middle;resizable=0;points=[];" vertex="1" connectable="0" parent="JidemQDoPhzi0IYGn3nQ-53">
          <mxGeometry x="-0.8378" y="1" relative="1" as="geometry">
            <mxPoint x="15" y="3" as="offset" />
          </mxGeometry>
        </mxCell>
        <mxCell id="JidemQDoPhzi0IYGn3nQ-63" value="" style="endArrow=classic;startArrow=classic;html=1;rounded=0;exitX=0.1;exitY=0.2;exitDx=0;exitDy=0;exitPerimeter=0;" edge="1" parent="1" source="JidemQDoPhzi0IYGn3nQ-60" target="JidemQDoPhzi0IYGn3nQ-6">
          <mxGeometry width="50" height="50" relative="1" as="geometry">
            <mxPoint x="350" y="420" as="sourcePoint" />
            <mxPoint x="400" y="370" as="targetPoint" />
          </mxGeometry>
        </mxCell>
        <mxCell id="JidemQDoPhzi0IYGn3nQ-64" value="" style="endArrow=classic;startArrow=classic;html=1;rounded=0;" edge="1" parent="1" source="JidemQDoPhzi0IYGn3nQ-60" target="JidemQDoPhzi0IYGn3nQ-7">
          <mxGeometry width="50" height="50" relative="1" as="geometry">
            <mxPoint x="403" y="570" as="sourcePoint" />
            <mxPoint x="240" y="264" as="targetPoint" />
          </mxGeometry>
        </mxCell>
        <mxCell id="JidemQDoPhzi0IYGn3nQ-65" value="" style="endArrow=classic;startArrow=classic;html=1;rounded=0;exitX=0.243;exitY=0.2;exitDx=0;exitDy=0;exitPerimeter=0;" edge="1" parent="1" source="JidemQDoPhzi0IYGn3nQ-60" target="JidemQDoPhzi0IYGn3nQ-5">
          <mxGeometry width="50" height="50" relative="1" as="geometry">
            <mxPoint x="370" y="420" as="sourcePoint" />
            <mxPoint x="420" y="370" as="targetPoint" />
          </mxGeometry>
        </mxCell>
        <mxCell id="JidemQDoPhzi0IYGn3nQ-66" value="&lt;font style=&quot;font-size: 8px;&quot;&gt;License plate&amp;nbsp;&lt;/font&gt;&lt;div&gt;&lt;font style=&quot;font-size: 8px;&quot;&gt;number&lt;/font&gt;&lt;/div&gt;" style="edgeLabel;html=1;align=center;verticalAlign=middle;resizable=0;points=[];" vertex="1" connectable="0" parent="JidemQDoPhzi0IYGn3nQ-65">
          <mxGeometry x="-0.2104" y="1" relative="1" as="geometry">
            <mxPoint x="1" y="4" as="offset" />
          </mxGeometry>
        </mxCell>
        <mxCell id="JidemQDoPhzi0IYGn3nQ-67" value="&lt;font style=&quot;font-size: 9px;&quot;&gt;Taxi or&lt;br&gt;&lt;/font&gt;&lt;div&gt;&lt;font style=&quot;font-size: 9px;&quot;&gt;personal&lt;/font&gt;&lt;/div&gt;" style="edgeLabel;html=1;align=center;verticalAlign=middle;resizable=0;points=[];" vertex="1" connectable="0" parent="JidemQDoPhzi0IYGn3nQ-65">
          <mxGeometry x="-0.0159" y="2" relative="1" as="geometry">
            <mxPoint as="offset" />
          </mxGeometry>
        </mxCell>
      </root>
    </mxGraphModel>
  </diagram>
</mxfile>
